<svg width="145" height="147" viewBox="0 0 145 147" fill="none" xmlns="http://www.w3.org/2000/svg">
<circle cx="25" cy="122" r="25" fill="#F4F0F2"/>
<circle cx="25" cy="122" r="25" fill="#F4F0F2"/>
<circle cx="25.5" cy="121.5" r="12.5" fill="#F4F0F2"/>
<circle cx="25.5" cy="121.5" r="12.5" fill="#FF0505"/>
<rect x="13" width="132" height="75" fill="#EDEEEC"/>
<rect x="26" y="11" width="107" height="54" fill="#111111"/>
<path d="M63.792 27.992C64.416 27.992 65.088 28.056 65.808 28.184C66.544 28.296 66.976 28.36 67.104 28.376L67.056 30.176C65.648 29.92 64.56 29.792 63.792 29.792C62.704 29.792 61.92 30.016 61.44 30.464C60.96 30.912 60.72 31.656 60.72 32.696V39.56C60.72 40.6 60.952 41.344 61.416 41.792C61.896 42.224 62.688 42.44 63.792 42.44C64.56 42.44 65.648 42.312 67.056 42.056L67.104 43.904C66.976 43.92 66.544 43.984 65.808 44.096C65.088 44.224 64.416 44.288 63.792 44.288C61.952 44.288 60.64 43.896 59.856 43.112C59.072 42.328 58.68 41.104 58.68 39.44V32.84C58.68 31.176 59.072 29.952 59.856 29.168C60.64 28.384 61.952 27.992 63.792 27.992ZM76.8013 32C78.1773 32 79.1773 32.312 79.8013 32.936C80.4413 33.544 80.7613 34.52 80.7613 35.864V44H78.8173V42.128C77.8893 43.568 76.8413 44.288 75.6733 44.288C74.7453 44.288 74.0013 43.968 73.4413 43.328C72.8973 42.688 72.6253 41.816 72.6253 40.712V40.04C72.6253 39.08 72.9533 38.288 73.6093 37.664C74.2653 37.024 75.1453 36.704 76.2493 36.704C76.8573 36.704 77.6813 36.808 78.7213 37.016V35.696C78.7213 35.008 78.5613 34.512 78.2413 34.208C77.9373 33.904 77.4573 33.752 76.8013 33.752C76.0333 33.752 74.9533 33.872 73.5613 34.112V32.36C75.0653 32.12 76.1453 32 76.8013 32ZM76.7533 38.288C76.0813 38.288 75.5693 38.464 75.2173 38.816C74.8653 39.168 74.6893 39.664 74.6893 40.304V40.568C74.6893 41.16 74.8253 41.624 75.0973 41.96C75.3693 42.296 75.7133 42.464 76.1293 42.464C76.5613 42.464 77.0013 42.28 77.4493 41.912C77.9133 41.528 78.3373 40.992 78.7213 40.304V38.456C78.1133 38.344 77.4573 38.288 76.7533 38.288ZM92.7186 32C92.9426 32 93.1186 32.016 93.2466 32.048V34.352C93.0066 34.304 92.6946 34.28 92.3106 34.28C91.1906 34.28 90.3026 34.84 89.6466 35.96V44H87.6066V32.288H89.5266V34.04C89.9586 33.384 90.4386 32.88 90.9666 32.528C91.5106 32.176 92.0946 32 92.7186 32Z" fill="#EDEEEC"/>
<path d="M56.7303 108.557L56.7292 74.6577L87.2448 74L56.7303 108.557Z" fill="#EDEEEC"/>
</svg>
